<svg width="74" height="74" viewBox="0 0 74 74" fill="none" xmlns="http://www.w3.org/2000/svg">
<path d="M0 36.79C0 36.79 0 36.79 0 36.79C1.52189e-06 16.4715 16.4715 1.52189e-06 36.79 0C36.79 0 36.79 0 36.79 0V0C36.79 0 36.79 0 36.79 0C57.1086 1.52189e-06 73.5801 16.4715 73.5801 36.79C73.5801 36.79 73.5801 36.79 73.5801 36.79V62.4737C73.5801 66.3613 73.5801 68.3051 72.8235 69.7899C72.158 71.0961 71.0961 72.158 69.7899 72.8235C68.3051 73.5801 66.3613 73.5801 62.4737 73.5801H36.79C36.79 73.5801 36.79 73.5801 36.79 73.5801C16.4715 73.5801 1.52189e-06 57.1086 0 36.79C0 36.79 0 36.79 0 36.79V36.79Z" fill="#CED0D4"/>
<g filter="url(#filter0_d_49_5558)">
<path d="M22.8935 45.3239C21.9616 45.3239 21.1605 44.9943 20.4901 44.3352C19.8196 43.6648 19.4844 42.858 19.4844 41.9148C19.4844 40.983 19.8196 40.1875 20.4901 39.5284C21.1605 38.858 21.9616 38.5227 22.8935 38.5227C23.8253 38.5227 24.6264 38.858 25.2969 39.5284C25.9673 40.1875 26.3026 40.983 26.3026 41.9148C26.3026 42.5398 26.1435 43.1136 25.8253 43.6364C25.5185 44.1477 25.1094 44.5568 24.598 44.8636C24.0866 45.1705 23.5185 45.3239 22.8935 45.3239ZM36.4872 45.3239C35.5554 45.3239 34.7543 44.9943 34.0838 44.3352C33.4134 43.6648 33.0781 42.858 33.0781 41.9148C33.0781 40.983 33.4134 40.1875 34.0838 39.5284C34.7543 38.858 35.5554 38.5227 36.4872 38.5227C37.419 38.5227 38.2202 38.858 38.8906 39.5284C39.5611 40.1875 39.8963 40.983 39.8963 41.9148C39.8963 42.5398 39.7372 43.1136 39.419 43.6364C39.1122 44.1477 38.7031 44.5568 38.1918 44.8636C37.6804 45.1705 37.1122 45.3239 36.4872 45.3239ZM50.081 45.3239C49.1491 45.3239 48.348 44.9943 47.6776 44.3352C47.0071 43.6648 46.6719 42.858 46.6719 41.9148C46.6719 40.983 47.0071 40.1875 47.6776 39.5284C48.348 38.858 49.1491 38.5227 50.081 38.5227C51.0128 38.5227 51.8139 38.858 52.4844 39.5284C53.1548 40.1875 53.4901 40.983 53.4901 41.9148C53.4901 42.5398 53.331 43.1136 53.0128 43.6364C52.706 44.1477 52.2969 44.5568 51.7855 44.8636C51.2741 45.1705 50.706 45.3239 50.081 45.3239Z" fill="#FEFCFA"/>
</g>
<defs>
<filter id="filter0_d_49_5558" x="15.4844" y="38.5227" width="42.0057" height="14.8011" filterUnits="userSpaceOnUse" color-interpolation-filters="sRGB">
<feFlood flood-opacity="0" result="BackgroundImageFix"/>
<feColorMatrix in="SourceAlpha" type="matrix" values="0 0 0 0 0 0 0 0 0 0 0 0 0 0 0 0 0 0 127 0" result="hardAlpha"/>
<feOffset dy="4"/>
<feGaussianBlur stdDeviation="2"/>
<feComposite in2="hardAlpha" operator="out"/>
<feColorMatrix type="matrix" values="0 0 0 0 0 0 0 0 0 0 0 0 0 0 0 0 0 0 0.25 0"/>
<feBlend mode="normal" in2="BackgroundImageFix" result="effect1_dropShadow_49_5558"/>
<feBlend mode="normal" in="SourceGraphic" in2="effect1_dropShadow_49_5558" result="shape"/>
</filter>
</defs>
</svg>
