<svg width="18" height="28" viewBox="0 0 18 28" fill="none" xmlns="http://www.w3.org/2000/svg">
<path fill-rule="evenodd" clip-rule="evenodd" d="M17.4169 0H0.150932V1.74443e-05H2.42114e-06L4.64815e-08 27.163L0 27.6947H0.531688L2.1492 27.6947H2.3289L2.47176 27.5857L8.68738 22.8422L8.73081 22.8422H9.27619L15.4918 27.5857L15.6347 27.6947H15.8144H17.4319H17.9636V27.163L17.9636 2.67792e-05L17.4169 2.67314e-05V0ZM16.9002 0.784818H1.06338L1.06338 26.6313H1.96949L8.18512 21.8878L8.32797 21.7788H8.50768L9.23277 21.7788L9.4559 21.7788H9.6356L9.77846 21.8878L15.9941 26.6313H16.9002L16.9002 0.784818Z" fill="#086387"/>
</svg>
