<svg width="16" height="16" viewBox="0 0 16 16" fill="none" xmlns="http://www.w3.org/2000/svg">
<path fill-rule="evenodd" clip-rule="evenodd" d="M7.89965 10.122L12.7164 15.425C12.972 15.7064 13.3186 15.8645 13.6801 15.8645C14.0416 15.8645 14.3882 15.7064 14.6438 15.425C14.8994 15.1436 15.043 14.7619 15.043 14.364C15.043 13.966 14.8994 13.5844 14.6438 13.303L9.82526 7.99999L14.6429 2.69699C14.7694 2.55766 14.8697 2.39226 14.9382 2.21024C15.0066 2.02821 15.0418 1.83313 15.0418 1.63613C15.0417 1.43914 15.0065 1.24407 14.9379 1.06209C14.8694 0.880101 14.769 0.714755 14.6425 0.575488C14.5159 0.436221 14.3657 0.325762 14.2003 0.250416C14.035 0.175071 13.8578 0.136315 13.6789 0.136361C13.4999 0.136408 13.3228 0.175255 13.1575 0.250687C12.9922 0.326118 12.842 0.436656 12.7155 0.575988L7.89965 5.87899L3.08289 0.575988C2.95727 0.432659 2.80698 0.318309 2.64079 0.239611C2.4746 0.160912 2.29583 0.119441 2.11493 0.117617C1.93402 0.115793 1.7546 0.153652 1.58713 0.228987C1.41965 0.304321 1.26748 0.415622 1.1395 0.556394C1.01152 0.697166 0.910277 0.864591 0.841692 1.0489C0.773107 1.23321 0.73855 1.43071 0.740036 1.62988C0.741522 1.82905 0.779022 2.02589 0.850348 2.20894C0.921674 2.39198 1.0254 2.55755 1.15546 2.69599L5.97403 7.99999L1.15637 13.304C1.02631 13.4424 0.922582 13.608 0.851257 13.791C0.779931 13.9741 0.742431 14.1709 0.740944 14.3701C0.739458 14.5693 0.774016 14.7668 0.8426 14.9511C0.911185 15.1354 1.01242 15.3028 1.14041 15.4436C1.26839 15.5844 1.42056 15.6957 1.58803 15.771C1.75551 15.8463 1.93493 15.8842 2.11584 15.8824C2.29674 15.8805 2.4755 15.8391 2.6417 15.7604C2.80789 15.6817 2.95818 15.5673 3.0838 15.424L7.89965 10.122Z" fill="black"/>
</svg>
