<svg width="297" height="68" viewBox="0 0 297 68" fill="none" xmlns="http://www.w3.org/2000/svg">
<g clip-path="url(#clip0_32_3103)">
<path d="M44.041 28.9382L37.1996 34.3954L35.8425 35.4855L27.142 42.4231L18.3424 35.4422L16.9729 34.352L10.1501 28.9382H1.20178V67.0081H10.1873V40.5153L15.3803 44.3867L17.0039 45.5946L24.9855 51.541H29.3048L37.1067 45.7246L38.7241 44.523L44.103 40.5153V67.0081H53.0823V28.9382H44.041Z" fill="#212121"/>
</g>
<path d="M59.0132 28.8083H67.0623V67.0168H59.0132V28.8083Z" fill="#212121"/>
<path d="M96.0281 59.3784V67.0168H78.3091V28.8083H86.2589V59.3784H96.0281Z" fill="#212121"/>
<path d="M122.932 59.3784V67.0168H105.213V28.8083H113.163V59.3784H122.932Z" fill="#212121"/>
<path d="M140.069 35.9032V44.5797H153.076V51.5111H140.069V59.9178H153.076V67.0127H132.116V28.8083H153.076V35.9032H140.069Z" fill="#212121"/>
<path d="M176.642 28.8083C188.028 28.8083 194.508 38.1428 194.508 47.9146C194.508 57.6864 188.08 67.0168 176.642 67.0168H164.028V28.8083H176.642ZM171.978 36.4509V59.3743H176.249C182.681 59.3743 186.411 53.8079 186.411 47.9105C186.411 42.0131 182.681 36.4509 176.249 36.4509H171.978Z" fill="#212121"/>
<path d="M202.324 47.9148C202.324 37.4359 209.098 27.8276 220.536 27.8276C231.974 27.8276 238.696 37.4359 238.696 47.9148C238.696 58.3936 231.922 68.0019 220.536 68.0019C209.15 68.0019 202.324 58.3936 202.324 47.9148ZM230.599 47.9148C230.599 41.6373 226.769 35.8012 220.536 35.8012C214.302 35.8012 210.473 41.6414 210.473 47.9148C210.473 54.1881 214.251 60.0324 220.536 60.0324C226.821 60.0324 230.599 54.1922 230.599 47.9148Z" fill="#212121"/>
<path d="M268.943 53.6976V28.8083H276.849V67.0168H268.55L256.178 42.4586V67.0168H248.229V28.8083H256.524L268.943 53.6976Z" fill="#212121"/>
<path d="M288.092 28.8083H296.141V67.0168H288.092V28.8083Z" fill="#212121"/>
<path d="M25.6841 29.1179L25.433 29.7168L25.1802 29.1179L15.6368 34.1103V67.4323H17.0868V35.142L25.433 30.7741L33.7775 35.142V67.4323H35.2275V34.1103L25.6841 29.1179Z" fill="#882B7D"/>
<path d="M48.1023 11.6693C46.9989 7.92603 43.8903 5.30929 40.5412 5.30929C40.3237 5.30929 40.1062 5.32707 39.8887 5.34881C38.9144 2.99493 36.9746 1.29325 34.5715 0.852517C31.3727 0.263552 28.1969 1.94744 26.4729 5.13734C26.411 5.24999 26.3703 5.37253 26.3137 5.48519C25.9972 4.93377 25.6471 4.39619 25.2351 3.89419C23.7833 2.11939 21.9956 1.21815 20.0523 1.20234C17.9834 1.21617 15.9658 2.32691 14.3673 4.32702C13.9412 4.85867 13.5628 5.50693 13.2533 6.19866C11.356 5.18675 9.35429 5.02073 7.41804 5.79153C4.63125 6.90029 2.4669 9.84314 2.03013 13.118C1.6199 16.221 2.8064 19.1757 5.29081 21.2272C7.92376 23.3973 11.3524 24.3558 14.6662 25.2827C18.2929 26.2966 22.0416 27.3441 24.5561 29.9806L24.5631 29.9747C24.6303 30.0419 24.7311 30.1071 24.8178 30.1723L26.2501 30.3957C28.7858 27.7335 32.2975 26.6208 36.0144 25.4448C39.2221 24.4289 42.5411 23.3775 45.151 21.2252C48.0545 18.8298 49.1579 15.2565 48.1005 11.6673L48.1023 11.6693ZM27.5674 5.87849C29.0209 3.19059 31.6857 1.77352 34.3664 2.26169C36.2195 2.60163 37.7261 3.86652 38.5678 5.62353C37.2009 6.04055 35.873 6.87855 34.6529 8.1217C32.4832 10.3372 30.1597 13.1734 28.3455 16.4977C28.5205 13.7169 28.372 10.1396 27.0635 6.98725C27.2155 6.60975 27.3764 6.23819 27.5692 5.87849H27.5674ZM39.2592 8.09403C39.6429 12.1397 37.4149 16.0569 35.4822 18.6302C34.1383 20.4188 32.4779 22.16 30.4072 23.9506C29.0545 25.1246 28.2128 26.1267 27.3994 27.0951C27.1536 27.3896 26.8955 27.69 26.6285 27.9983C26.5701 27.8422 26.5047 27.686 26.4269 27.5378C26.4923 25.8934 26.7487 24.3064 27.1625 22.7905C27.3234 22.3004 27.479 21.8043 27.6187 21.3023C29.3339 16.3336 32.5769 12.1713 35.5122 9.17314C36.6262 8.03671 37.8322 7.28766 39.0594 6.95167C39.1531 7.31928 39.2221 7.70073 39.2592 8.09403ZM13.6883 9.5368C13.7113 9.13361 13.7944 8.70078 13.9058 8.264C14.2541 8.53476 14.5972 8.83518 14.9314 9.17512C17.9799 12.2879 20.3087 15.5648 21.8577 18.9187C22.7259 20.7983 23.336 22.7016 23.6861 24.5811C23.6772 24.5732 23.6666 24.5653 23.6578 24.5574C23.1644 24.1503 22.6976 23.7668 22.351 23.4032C21.6968 22.7154 20.9912 22.0296 20.2716 21.3299C16.8889 18.0452 13.393 14.6497 13.6865 9.53482L13.6883 9.5368ZM26.708 19.5611C26.6302 20.0216 26.5135 20.486 26.3827 20.9525C26.2395 21.3794 26.1068 21.8082 25.9831 22.243C25.9813 22.2509 25.9795 22.2569 25.976 22.2628C25.9795 21.7904 25.9884 21.3181 25.9884 20.8477C25.9884 19.901 25.9636 18.9227 25.9371 17.9286C25.8557 14.9185 25.7868 11.8413 26.4163 9.07234C27.5568 13.039 27.067 17.4404 26.7063 19.5591L26.708 19.5611ZM15.3222 5.27964C16.6767 3.58389 18.3601 2.64313 20.0611 2.63127H20.093C21.649 2.63127 23.1008 3.40207 24.2961 4.86065C24.8496 5.5346 25.2917 6.27772 25.6595 7.05642C24.4783 10.4835 24.5667 14.4224 24.6622 17.972C24.6869 18.9523 24.7134 19.9168 24.7117 20.8477C24.7117 21.6106 24.7011 22.3755 24.6904 23.1364C24.3032 21.5098 23.7374 19.8773 22.9929 18.2646C21.3732 14.7584 18.9524 11.3472 15.7925 8.1217C15.3346 7.65527 14.8607 7.26592 14.3815 6.91214C14.6467 6.30737 14.9579 5.73421 15.3222 5.27964ZM14.9791 23.9012C11.7839 23.0079 8.48076 22.0849 6.05117 20.0809C3.93102 18.3318 2.95317 15.9324 3.29798 13.3295C3.66401 10.5645 5.49416 8.07624 7.84773 7.1414C8.5232 6.87262 9.21106 6.7402 9.89891 6.7402C10.8626 6.7402 11.8281 7.00899 12.7688 7.5189C12.5761 8.17111 12.4488 8.82925 12.4134 9.44588C12.0774 15.2664 15.987 19.061 19.4352 22.4091C20.1407 23.0929 20.8339 23.7668 21.4775 24.4428C21.8789 24.8657 22.374 25.2748 22.8992 25.7057C23.2546 25.9982 23.6136 26.3045 23.9584 26.6207C23.9884 26.9785 24.0203 27.3362 24.0327 27.6939C21.4333 25.7057 18.1602 24.7906 14.9774 23.9032L14.9791 23.9012ZM44.396 20.0809C41.9717 22.079 38.7676 23.0929 35.6678 24.0752C33.7864 24.672 31.8767 25.2847 30.0854 26.1187C30.4161 25.7847 30.7697 25.4428 31.1906 25.0792C33.3337 23.2253 35.0578 21.4149 36.4583 19.5492C38.5536 16.7625 40.9603 12.4895 40.5288 7.9458C40.4917 7.53669 40.4192 7.13943 40.329 6.75206C40.3997 6.75008 40.4722 6.73822 40.5429 6.73822C43.3492 6.73822 45.9574 8.94981 46.891 12.116C47.7805 15.1339 46.8716 18.0373 44.396 20.0789V20.0809Z" fill="#882B7D"/>
<defs>
<clipPath id="clip0_32_3103">
<rect width="52.1718" height="66.2722" fill="white" transform="translate(0.910645 0.736328)"/>
</clipPath>
</defs>
</svg>
