<svg width="35" height="35" viewBox="0 0 35 35" fill="none" xmlns="http://www.w3.org/2000/svg">
<ellipse cx="17.162" cy="17.8072" rx="15.9744" ry="15.9744" fill="white"/>
<path d="M17.162 34.3109C26.2767 34.3109 33.6657 26.9219 33.6657 17.8072C33.6657 8.69244 26.2767 1.30348 17.162 1.30348C8.04724 1.30348 0.65828 8.69244 0.65828 17.8072C0.65828 26.9219 8.04724 34.3109 17.162 34.3109Z" stroke="#C9C9C9" stroke-opacity="0.3" stroke-width="1.05856"/>
<path fill-rule="evenodd" clip-rule="evenodd" d="M10.0624 26.9779V10.4118C10.0624 9.84237 10.2653 9.35505 10.6712 8.94987C11.0771 8.54469 11.5644 8.34175 12.1331 8.34106H22.4869C23.0564 8.34106 23.5441 8.544 23.9499 8.94987C24.3558 9.35574 24.5584 9.84306 24.5577 10.4118V26.9779L17.31 23.8718L10.0624 26.9779ZM12.1331 23.82L17.31 21.5939L22.4869 23.82V11.4704C22.4869 10.8858 22.013 10.4118 21.4284 10.4118H13.1917C12.6071 10.4118 12.1331 10.8858 12.1331 11.4704V23.82ZM18.3682 12.4595V13.518V14.826H19.6762L20.7347 14.826V16.9431H19.6762H18.3682V18.2512L18.3682 19.3098L16.2511 19.3098V18.2512V16.9431H14.943L13.8845 16.9431V14.826H14.943H16.2511V13.518L16.2511 12.4595L18.3682 12.4595Z" fill="#212121"/>
</svg>
